HIERARCHY
ROOT Hips
{
  OFFSET 5.84602e-005 68.8428 3.50346
  CHANNELS 6 Xposition Yposition Zposition Zrotation Xrotation Yrotation
  JOINT Spine
  {
    OFFSET 0 8.597 -4.6522
    CHANNELS 3 Zrotation Xrotation Yrotation
    JOINT Spine1
    {
      OFFSET 0 7.8454 0.4098
      CHANNELS 3 Zrotation Xrotation Yrotation
      JOINT Spine2
      {
        OFFSET 0 9.7078 -2.1609
        CHANNELS 3 Zrotation Xrotation Yrotation
        JOINT Neck
        {
          OFFSET 0 21.8761 -0.4549
          CHANNELS 3 Zrotation Xrotation Yrotation
          JOINT Head
          {
            OFFSET 0 12.3537 3.3602
            CHANNELS 3 Zrotation Xrotation Yrotation
            End Site
            {
              OFFSET 0.0001 18.9506 0.5657
            }
          }
        }
        JOINT LeftShoulder
        {
          OFFSET 2.2086 21.1115 7.2329
          CHANNELS 3 Zrotation Xrotation Yrotation
          JOINT LeftArm
          {
            OFFSET 13.1193 3.0282 -4.8998
            CHANNELS 3 Zrotation Xrotation Yrotation
            JOINT LeftForeArm
            {
              OFFSET 27.4081 -0.0973053 -0.2375
              CHANNELS 3 Zrotation Xrotation Yrotation
              JOINT LeftHand
              {
                OFFSET 22.8641 0.0662994 -0.1369
                CHANNELS 3 Zrotation Xrotation Yrotation
                JOINT LeftHandIndex1
                {
                  OFFSET 8.8614 0.775009 2.4612
                  CHANNELS 3 Zrotation Xrotation Yrotation
                  JOINT LeftHandIndex2
                  {
                    OFFSET 3.3146 -0.808304 0.5841
                    CHANNELS 3 Zrotation Xrotation Yrotation
                    JOINT LeftHandIndex3
                    {
                      OFFSET 2.2628 -0.552002 0.3989
                      CHANNELS 3 Zrotation Xrotation Yrotation
                      End Site
                      {
                        OFFSET 1.6102 -0.4807 0.2612
                      }
                    }
                  }
                }
                JOINT LeftHandMiddle1
                {
                  OFFSET 8.9937 0.895004 0.2143
                  CHANNELS 3 Zrotation Xrotation Yrotation
                  JOINT LeftHandMiddle2
                  {
                    OFFSET 4.0984 0.0113983 -0.0242
                    CHANNELS 3 Zrotation Xrotation Yrotation
                    JOINT LeftHandMiddle3
                    {
                      OFFSET 2.2716 0.00689697 -0.0138001
                      CHANNELS 3 Zrotation Xrotation Yrotation
                      End Site
                      {
                        OFFSET 2.0404 -0.1441 0.0027
                      }
                    }
                  }
                }
                JOINT LeftHandRing1
                {
                  OFFSET 8.5234 0.597198 -2.0164
                  CHANNELS 3 Zrotation Xrotation Yrotation
                  JOINT LeftHandRing2
                  {
                    OFFSET 3.7188 -0.188293 -0.2328
                    CHANNELS 3 Zrotation Xrotation Yrotation
                    JOINT LeftHandRing3
                    {
                      OFFSET 2.1191 -0.106598 -0.1332
                      CHANNELS 3 Zrotation Xrotation Yrotation
                      End Site
                      {
                        OFFSET 1.8737 -0.2304 -0.0886
                      }
                    }
                  }
                }
                JOINT LeftHandPinky1
                {
                  OFFSET 7.9094 -0.601089 -3.4825
                  CHANNELS 3 Zrotation Xrotation Yrotation
                  JOINT LeftHandPinky2
                  {
                    OFFSET 2.2874 -0.477005 -0.6314
                    CHANNELS 3 Zrotation Xrotation Yrotation
                    JOINT LeftHandPinky3
                    {
                      OFFSET 1.6774 -0.349396 -0.4633
                      CHANNELS 3 Zrotation Xrotation Yrotation
                      End Site
                      {
                        OFFSET 1.4888 -0.4091 -0.3416
                      }
                    }
                  }
                }
                JOINT LeftHandThumb1
                {
                  OFFSET 1.833 -1.3875 1.3896
                  CHANNELS 3 Zrotation Xrotation Yrotation
                  JOINT LeftHandThumb2
                  {
                    OFFSET 3.4129 -1.121 2.5732
                    CHANNELS 3 Zrotation Xrotation Yrotation
                    JOINT LeftHandThumb3
                    {
                      OFFSET 2.2474 -0.804199 1.6192
                      CHANNELS 3 Zrotation Xrotation Yrotation
                      End Site
                      {
                        OFFSET 1.6527 -0.5689 1.1317
                      }
                    }
                  }
                }
              }
            }
          }
        }
        JOINT RightShoulder
        {
          OFFSET -2.2086 21.1115 7.2329
          CHANNELS 3 Zrotation Xrotation Yrotation
          JOINT RightArm
          {
            OFFSET -13.1216 3.0287 -4.9007
            CHANNELS 3 Zrotation Xrotation Yrotation
            JOINT RightForeArm
            {
              OFFSET -27.4081 -0.0973053 -0.2375
              CHANNELS 3 Zrotation Xrotation Yrotation
              JOINT RightHand
              {
                OFFSET -22.8641 0.0664063 -0.1369
                CHANNELS 3 Zrotation Xrotation Yrotation
                JOINT RightHandIndex1
                {
                  OFFSET -8.8614 0.774994 2.4612
                  CHANNELS 3 Zrotation Xrotation Yrotation
                  JOINT RightHandIndex2
                  {
                    OFFSET -3.3146 -0.808304 0.5841
                    CHANNELS 3 Zrotation Xrotation Yrotation
                    JOINT RightHandIndex3
                    {
                      OFFSET -2.2628 -0.552002 0.3989
                      CHANNELS 3 Zrotation Xrotation Yrotation
                      End Site
                      {
                        OFFSET -1.6102 -0.4807 0.2612
                      }
                    }
                  }
                }
                JOINT RightHandMiddle1
                {
                  OFFSET -8.9937 0.894989 0.2143
                  CHANNELS 3 Zrotation Xrotation Yrotation
                  JOINT RightHandMiddle2
                  {
                    OFFSET -4.0984 0.0113983 -0.0242
                    CHANNELS 3 Zrotation Xrotation Yrotation
                    JOINT RightHandMiddle3
                    {
                      OFFSET -2.2716 0.00691223 -0.0138001
                      CHANNELS 3 Zrotation Xrotation Yrotation
                      End Site
                      {
                        OFFSET -2.0404 -0.1441 0.0027
                      }
                    }
                  }
                }
                JOINT RightHandRing1
                {
                  OFFSET -8.5234 0.597198 -2.0164
                  CHANNELS 3 Zrotation Xrotation Yrotation
                  JOINT RightHandRing2
                  {
                    OFFSET -3.7188 -0.188309 -0.2328
                    CHANNELS 3 Zrotation Xrotation Yrotation
                    JOINT RightHandRing3
                    {
                      OFFSET -2.1191 -0.106598 -0.1332
                      CHANNELS 3 Zrotation Xrotation Yrotation
                      End Site
                      {
                        OFFSET -1.8737 -0.2304 -0.0886
                      }
                    }
                  }
                }
                JOINT RightHandPinky1
                {
                  OFFSET -7.9094 -0.601105 -3.4825
                  CHANNELS 3 Zrotation Xrotation Yrotation
                  JOINT RightHandPinky2
                  {
                    OFFSET -2.2874 -0.477005 -0.6314
                    CHANNELS 3 Zrotation Xrotation Yrotation
                    JOINT RightHandPinky3
                    {
                      OFFSET -1.6774 -0.349396 -0.4633
                      CHANNELS 3 Zrotation Xrotation Yrotation
                      End Site
                      {
                        OFFSET -1.4888 -0.4091 -0.3416
                      }
                    }
                  }
                }
                JOINT RightHandThumb1
                {
                  OFFSET -1.833 -1.38751 1.3896
                  CHANNELS 3 Zrotation Xrotation Yrotation
                  JOINT RightHandThumb2
                  {
                    OFFSET -3.41299 -1.12099 2.5732
                    CHANNELS 3 Zrotation Xrotation Yrotation
                    JOINT RightHandThumb3
                    {
                      OFFSET -2.24741 -0.804108 1.6192
                      CHANNELS 3 Zrotation Xrotation Yrotation
                      End Site
                      {
                        OFFSET -1.6527 -0.5689 1.1317
                      }
                    }
                  }
                }
              }
            }
          }
        }
      }
    }
  }
  JOINT RightUpLeg
  {
    OFFSET -9.1966 3.8861 -0.7581
    CHANNELS 3 Zrotation Xrotation Yrotation
    JOINT RightLeg
    {
      OFFSET -0.7359 -41.0265 0
      CHANNELS 3 Zrotation Xrotation Yrotation
      JOINT RightFoot
      {
        OFFSET 0 -40.2855 0
        CHANNELS 3 Zrotation Xrotation Yrotation
        JOINT RightToeBase
        {
          OFFSET 0 -5.6122 11.7359
          CHANNELS 3 Zrotation Xrotation Yrotation
          End Site
          {
            OFFSET 0 0 7.8731
          }
        }
      }
    }
  }
  JOINT LeftUpLeg
  {
    OFFSET 9.1965 3.8864 -0.7581
    CHANNELS 3 Zrotation Xrotation Yrotation
    JOINT LeftLeg
    {
      OFFSET 0.7359 -41.0268 0
      CHANNELS 3 Zrotation Xrotation Yrotation
      JOINT LeftFoot
      {
        OFFSET 0 -40.2855 0
        CHANNELS 3 Zrotation Xrotation Yrotation
        JOINT LeftToeBase
        {
          OFFSET 0 -5.6122 11.7359
          CHANNELS 3 Zrotation Xrotation Yrotation
          End Site
          {
            OFFSET 0 0 7.8731
          }
        }
      }
    }
  }
}
MOTION
Frames:	7
Frame Time:	0.0333333
5.84602e-005 68.8428 3.50346 0 0 -0 0 0 -0 0 0 -0 0 0 -0 0 0 -0 0 0 -0 0 0 -0 0 0 -0 0 0 -0 0 0 -0 0 0 -0 0 0 -0 0 0 -0 0 0 -0 -0.0146107 -8.87603e-005 -2.63497e-007 2.99804e-018 -2.42657e-020 -1.42182e-022 0 0 -0 -0.0187562 -0.001176 5.858e-005 5.06224e-018 3.88251e-019 1.21329e-020 0 0 -0 -0.012269 -0.00324817 0.000675346 -1.74678e-018 3.88251e-019 -0 0 0 -0 0 0 -0 0 0 -0 0 0 -0 0 0 -0 0 0 -0 0 0 -0 0 0 -0 0 0 -0 0 0 -0 0 0 -0 0.0149955 -9.10982e-005 2.64101e-007 -9.69331e-018 1.21329e-020 -4.7394e-023 0 0 -0 0.0189956 -0.00119102 -5.96516e-005 -5.41541e-019 0 2.42657e-020 0 0 -0 0.0122698 -0.00324857 -0.000673756 -2.00796e-019 0 -1.94126e-019 0 0 -0 0 0 -0 0 0 -0 3.39842 1.33031 -0.0637918 -5.65207e-008 0.834868 -0.000436188 -3.39935 -2.16518 -0.0642563 -8.89002e-024 -1.18485e-023 -1.48106e-024 -3.39844 1.35642 0.0640283 -3.18788e-007 0.782166 -0.000588827 3.39931 -2.13858 0.0634662 1.1399e-023 0 -0 
0.00616224 25.5578 6.36223 -0 -35.4387 -0 0 6.52457 -0 0 13.0491 -0 0 13.0491 -0 0 8.32178e-006 -0 0.00157621 0.137287 -0.0867177 0 8.32178e-006 -0 -42.191 -0.0191137 -0.000328509 3.18091e-006 2.67484e-007 -1.01562e-007 44.9999 -3.97588e-007 3.15335e-007 5.32681e-016 3.97569e-016 2.48481e-017 -1.6466e-010 -1.63415e-010 -6.66607e-009 -9.78393e-017 -7.95139e-016 -2.48481e-017 5.32681e-016 3.97569e-016 2.48481e-017 -0.0146466 -8.89207e-005 -3.75755e-007 1.87914e-016 -7.95139e-016 2.48481e-017 5.32681e-016 3.97569e-016 2.48481e-017 -0.0187756 -0.00117688 5.87115e-005 3.33896e-016 -3.97569e-016 -9.93923e-017 5.32681e-016 3.97569e-016 2.48481e-017 -0.0122607 -0.00324564 0.000674905 -1.0871e-017 3.97569e-016 -9.93923e-017 5.32681e-016 3.97569e-016 2.48481e-017 -1.6466e-010 -1.63415e-010 -6.66607e-009 -9.78393e-017 -7.95139e-016 -2.48481e-017 0 8.32178e-006 -0 42.2347 -0.0460752 -0.0580969 0.0102578 0.177194 0.67028 -45.0729 -0.0281019 -0.0165537 1.09332e-015 -7.95139e-016 -1.49089e-016 1.084e-015 -7.95139e-016 -2.48481e-016 1.07779e-015 -7.95139e-016 -1.98785e-016 1.09332e-015 -7.95139e-016 -1.49089e-016 0.0149574 -9.09121e-005 3.47968e-007 -9.01978e-008 -4.82315e-008 1.16949e-009 1.09332e-015 -7.95139e-016 -1.49089e-016 0.0190089 -0.00119148 -6.01117e-005 1.73937e-016 7.95139e-016 -1.98785e-016 1.09332e-015 -7.95139e-016 -1.49089e-016 0.0122128 -0.00323344 -0.000673155 1.16165e-015 7.95139e-016 -0 1.09332e-015 -7.95139e-016 -1.49089e-016 1.084e-015 -7.95139e-016 -2.48481e-016 1.07779e-015 -7.95139e-016 -1.98785e-016 -3.06256 -31.1909 -4.54175 0.0693524 43.7172 -1.73595 -3.47911 7.88829 0.23995 2.1131e-007 1.12888e-008 -2.77265e-008 2.48338 -31.3194 5.25844 -0.0649616 43.5186 1.61525 2.9084 4.69458 -0.0153643 1.49643e-007 1.1746e-006 3.0047e-007 
0.00898893 -7.38586 7.09473 -0 -63.0022 -0 -2.45214e-014 11.5992 -1.13669e-014 -1.17316e-021 23.1985 -8.63606e-022 -1.40184e-022 23.1984 5.82113e-022 -3.20546e-020 6.61043e-005 -3.37181e-021 0.000415007 0.274518 -0.173106 1.64788e-022 4.98956e-006 1.81162e-021 -75.004 3.45391e-007 4.3051e-007 9.55627e-006 7.56577e-007 2.04589e-007 79.9998 1.36641e-007 2.42128e-007 2.3233e-015 0 -0 7.64079e-016 0 9.93923e-017 7.82715e-016 0 4.96962e-017 2.3233e-015 0 -0 -0.0146115 -8.90757e-005 -1.18364e-007 -4.28629e-016 2.38542e-015 1.49089e-016 2.3233e-015 0 -0 -0.0187641 -0.00117633 5.9174e-005 -5.59082e-017 7.95139e-016 9.93923e-017 2.3233e-015 0 -0 -0.0122703 -0.00324821 0.000676856 4.96962e-017 -7.95139e-016 4.96962e-017 2.3233e-015 0 -0 7.64079e-016 0 9.93923e-017 7.82715e-016 0 4.96962e-017 1.64788e-022 4.98956e-006 1.81162e-021 74.9996 9.08618e-008 -3.93686e-007 -0.0092446 0.34438 1.32721 -80.018 5.58741e-007 5.6986e-007 -1.44806e-009 1.17443e-009 -2.6615e-008 4.25841e-007 -1.50298e-009 -2.31689e-008 3.71168e-016 -7.95139e-016 2.23633e-016 -1.44806e-009 1.17443e-009 -2.6615e-008 0.0149691 -9.07812e-005 2.61777e-007 9.00743e-016 0 -4.96962e-017 -1.44806e-009 1.17443e-009 -2.6615e-008 0.0190238 -0.00119212 -5.97256e-005 7.92033e-016 -1.59028e-015 -1.98785e-016 -1.44806e-009 1.17443e-009 -2.6615e-008 0.0122408 -0.00324041 -0.00067235 8.07563e-017 1.59028e-015 -9.93923e-017 -1.44806e-009 1.17443e-009 -2.6615e-008 4.25841e-007 -1.50298e-009 -2.31689e-008 3.71168e-016 -7.95139e-016 2.23633e-016 -13.1371 -55.1973 -11.6717 0.0224879 75.4552 -2.00806 -3.18909 16.4546 -0.862977 7.95139e-016 0 -3.18055e-015 13.0732 -55.289 13.6193 -0.0203888 75.1657 1.8767 2.25568 10.696 1.15556 2.03659e-007 -1.93567e-008 -6.05265e-008 
0.0092311 -12.0782 7.07981 -0 -66.9398 -0 -1.61352e-014 12.3242 -7.75201e-015 5.38845e-022 24.6484 5.16405e-022 4.01574e-022 24.6483 6.65817e-022 -3.87636e-020 0.000118011 -1.60043e-021 -0.00974232 0.411573 -0.258507 -1.89938e-023 -2.13214e-006 8.82098e-025 -79.6831 0.13378 0.00230347 -2.04128e-008 4.64028e-007 1.09464e-007 84.9998 -4.90239e-007 -1.31002e-006 2.79541e-016 0 -1.98785e-016 2.48481e-016 0 -2.48481e-016 2.11209e-016 0 -2.48481e-016 2.79541e-016 0 -1.98785e-016 -0.0146201 -8.91193e-005 -2.27355e-007 -1.66482e-015 2.38542e-015 1.98785e-016 2.79541e-016 0 -1.98785e-016 -0.0187597 -0.00117648 5.87615e-005 1.30452e-016 0 1.49089e-016 2.79541e-016 0 -1.98785e-016 -0.0122205 -0.00323521 0.000673509 5.59082e-017 0 9.93923e-017 2.79541e-016 0 -1.98785e-016 2.48481e-016 0 -2.48481e-016 2.11209e-016 0 -2.48481e-016 -1.89938e-023 -2.13214e-006 8.82098e-025 79.3519 0.322834 0.405508 -0.109192 0.481781 1.94341 -84.5806 0.196252 0.116277 7.33772e-009 8.51056e-007 4.00626e-008 6.81677e-009 -5.00782e-009 1.06382e-007 5.20945e-010 8.56064e-007 -6.63195e-008 7.33772e-009 8.51056e-007 4.00626e-008 0.0149606 -9.12892e-005 4.09277e-007 5.28135e-010 8.56055e-007 -6.64312e-008 7.33772e-009 8.51056e-007 4.00626e-008 0.0190136 -0.00119128 -6.00676e-005 5.29007e-010 8.56052e-007 -6.64615e-008 7.33772e-009 8.51056e-007 4.00626e-008 0.0122258 -0.00323662 -0.000673678 5.19956e-010 8.56055e-007 -6.64111e-008 7.33772e-009 8.51056e-007 4.00626e-008 6.81677e-009 -5.00782e-009 1.06382e-007 5.20945e-010 8.56064e-007 -6.63195e-008 -15.4367 -58.5441 -13.485 0.01772 80.0008 -2.17023 -3.14209 17.6504 -0.947232 -3.14504e-008 -1.6678e-006 8.10006e-008 15.6088 -58.6016 15.7537 -0.0158952 79.7013 2.02993 2.15402 11.5238 1.25373 -8.77235e-007 9.84936e-007 -1.97408e-006 
0.00898893 -7.38586 7.09473 -0 -63.0022 -0 -2.45214e-014 11.5992 -1.13669e-014 -1.17316e-021 23.1985 -8.63606e-022 -1.40184e-022 23.1984 5.82113e-022 -3.20546e-020 6.61043e-005 -3.37181e-021 -0.0227491 0.548594 -0.343576 1.64788e-022 4.98956e-006 1.81162e-021 -74.9841 0.305813 0.00525208 -1.25509e-006 -1.00129e-007 5.83635e-007 79.9998 -1.11647e-006 9.51445e-008 5.73735e-010 5.84673e-010 1.3315e-008 8.13775e-016 -1.59028e-015 -4.96962e-017 5.73737e-010 5.84673e-010 1.3315e-008 5.73735e-010 5.84673e-010 1.3315e-008 -0.0146163 -8.8333e-005 -2.01507e-007 5.73747e-010 5.82974e-010 1.33151e-008 5.73735e-010 5.84673e-010 1.3315e-008 -0.0187297 -0.00117391 5.89066e-005 5.73871e-010 5.82496e-010 1.33151e-008 5.73735e-010 5.84673e-010 1.3315e-008 -0.0123129 -0.00325924 0.00067872 5.74119e-010 5.83237e-010 1.33151e-008 5.73735e-010 5.84673e-010 1.3315e-008 8.13775e-016 -1.59028e-015 -4.96962e-017 5.73737e-010 5.84673e-010 1.3315e-008 1.64788e-022 4.98956e-006 1.81162e-021 74.2274 0.737106 0.929633 -0.236928 0.608831 2.54755 -79.0157 0.449616 0.264859 7.95139e-016 0 -0 7.45443e-016 0 -1.98785e-016 7.45443e-016 0 -3.97569e-016 7.95139e-016 0 -0 0.0150075 -9.0285e-005 4.61013e-007 -9.93923e-016 -1.59028e-015 3.97569e-016 7.95139e-016 0 -0 0.0189966 -0.00119146 -5.92604e-005 -3.47873e-016 1.59028e-015 -0 7.95139e-016 0 -0 0.0122673 -0.00324714 -0.000674776 1.49089e-015 -1.59028e-015 -3.97569e-016 7.95139e-016 0 -0 7.45443e-016 0 -1.98785e-016 7.45443e-016 0 -3.97569e-016 -13.1371 -55.1973 -11.6717 0.0224614 75.4552 -2.00803 -3.18909 16.4547 -0.86297 -3.09956e-007 -3.10015e-008 7.38962e-008 13.0732 -55.289 13.6193 -0.0203888 75.1657 1.8767 2.25568 10.696 1.15556 2.03659e-007 -1.93567e-008 -6.05265e-008 
0.00898893 -7.38586 7.09473 -0 -63.0022 -0 -1.37611e-014 11.5992 -5.11691e-015 -2.9636e-023 23.1985 -4.73185e-022 -9.8399e-023 23.1984 -5.18145e-022 -1.60457e-020 6.61043e-005 6.55475e-021 -0.034029 0.685702 -0.428802 -7.57646e-023 4.98956e-006 1.01749e-021 -74.9741 0.4588 0.00783664 5.75233e-015 0 -0 79.9998 4.07972e-007 3.03104e-007 -4.25788e-007 4.26413e-007 2.60861e-008 4.26927e-007 -4.2524e-007 5.44131e-010 -4.24648e-007 4.27587e-007 5.27163e-008 -4.25788e-007 4.26413e-007 2.60861e-008 -0.0146166 -8.88207e-005 -3.31754e-007 -4.24653e-007 4.2758e-007 5.27712e-008 -4.25788e-007 4.26413e-007 2.60861e-008 -0.0187688 -0.00117676 5.91015e-005 -4.24654e-007 4.27578e-007 5.27907e-008 -4.25788e-007 4.26413e-007 2.60861e-008 -0.0122391 -0.00324025 0.00067416 -4.24648e-007 4.27582e-007 5.27742e-008 -4.25788e-007 4.26413e-007 2.60861e-008 4.26927e-007 -4.2524e-007 5.44131e-010 -4.24648e-007 4.27587e-007 5.27163e-008 -7.57646e-023 4.98956e-006 1.01749e-021 73.834 1.10358 1.40168 -0.353569 0.739966 3.16162 -78.513 0.677147 0.394907 -9.93923e-017 1.59028e-015 -1.59028e-015 5.46658e-016 1.59028e-015 -1.19271e-015 -1.09332e-015 1.59028e-015 -7.95139e-016 -9.93923e-017 1.59028e-015 -1.59028e-015 0.015022 -9.15015e-005 2.32562e-007 7.95139e-016 6.36111e-015 -7.95139e-016 -9.93923e-017 1.59028e-015 -1.59028e-015 0.0189806 -0.00119017 -5.97341e-005 2.48481e-016 4.77083e-015 -0 -9.93923e-017 1.59028e-015 -1.59028e-015 0.0122951 -0.00325435 -0.000677066 1.94023e-007 1.30199e-007 5.68689e-008 -9.93923e-017 1.59028e-015 -1.59028e-015 5.46658e-016 1.59028e-015 -1.19271e-015 -1.09332e-015 1.59028e-015 -7.95139e-016 -13.1371 -55.1973 -11.6717 0.0224699 75.4553 -2.00804 -3.18909 16.4547 -0.862971 -5.07012e-007 -4.00239e-008 -7.52652e-007 13.0732 -55.289 13.6192 -0.0203986 75.1656 1.87671 2.25568 10.696 1.15556 -3.68871e-007 3.18659e-008 9.96216e-007 
0.00898894 -7.38586 7.09473 -0 -63.0022 -0 -1.35369e-014 11.5992 -4.98669e-015 -4.4739e-022 23.1985 7.25508e-022 7.60632e-023 23.1984 9.28899e-022 -1.90185e-020 6.61043e-005 1.73111e-020 -0.0451076 0.822859 -0.514021 -6.49922e-023 4.98956e-006 1.00026e-021 -74.9642 0.61184 0.0103986 1.32023e-010 3.9525e-008 2.9898e-007 79.9998 -1.70941e-007 7.78588e-007 -1.2129e-015 0 1.98785e-016 -1.13084e-009 -1.17699e-009 -2.66303e-008 -1.52195e-016 -7.95139e-016 -1.98785e-016 -1.2129e-015 0 1.98785e-016 -0.0146336 -8.94178e-005 -3.08582e-007 -1.94126e-016 7.95139e-016 4.96962e-017 -1.2129e-015 0 1.98785e-016 -0.0187379 -0.00117383 5.91641e-005 -1.75165e-007 1.52089e-007 -7.84374e-009 -1.2129e-015 0 1.98785e-016 -0.0122541 -0.00324419 0.00067582 1.78596e-015 7.95139e-016 -0 -1.2129e-015 0 1.98785e-016 -1.13084e-009 -1.17699e-009 -2.66303e-008 -1.52195e-016 -7.95139e-016 -1.98785e-016 -6.49922e-023 4.98956e-006 1.00026e-021 73.4355 1.46854 1.87859 -0.472054 0.870325 3.77828 -78.0095 0.906472 0.523327 -9.93923e-017 1.59028e-015 -3.97569e-016 -7.95139e-016 1.59028e-015 3.97569e-016 1.39149e-015 4.77083e-015 -3.97569e-016 -9.93923e-017 1.59028e-015 -3.97569e-016 0.0149858 -9.15004e-005 3.28527e-007 -2.98177e-016 1.59028e-015 -0 -9.93923e-017 1.59028e-015 -3.97569e-016 0.0189941 -0.00119111 -5.90339e-005 1.49089e-015 -3.18055e-015 -3.97569e-016 -9.93923e-017 1.59028e-015 -3.97569e-016 0.0122758 -0.00324965 -0.000674931 -8.94531e-016 1.59028e-015 -3.97569e-016 -9.93923e-017 1.59028e-015 -3.97569e-016 -7.95139e-016 1.59028e-015 3.97569e-016 1.39149e-015 4.77083e-015 -3.97569e-016 -13.1371 -55.1973 -11.6717 0.0224606 75.4553 -2.00803 -3.18908 16.4546 -0.862968 -4.03693e-007 -2.96901e-008 -7.77284e-007 13.0732 -55.289 13.6193 -0.0204041 75.1657 1.87672 2.25568 10.696 1.15555 3.18055e-015 1.59028e-014 1.59028e-015 
